<mxfile host="app.diagrams.net" modified="2024-03-15T02:12:04.452Z" agent="Mozilla/5.0 (Macintosh; Intel Mac OS X 10_15_7) AppleWebKit/605.1.15 (KHTML, like Gecko) Version/17.2.1 Safari/605.1.15" etag="vHjUf4MCKgn_5Yny1in7" version="24.0.6" type="github">
  <diagram name="Page-1" id="o51DUiljhEwpaucksWle">
    <mxGraphModel dx="1220" dy="1190" grid="1" gridSize="10" guides="1" tooltips="1" connect="1" arrows="1" fold="1" page="1" pageScale="1" pageWidth="850" pageHeight="1100" math="0" shadow="0">
      <root>
        <mxCell id="0" />
        <mxCell id="1" parent="0" />
        <mxCell id="VNdd1rjlOEJEIQUawzbV-1" value="Game Session" style="rounded=0;whiteSpace=wrap;html=1;fillColor=#d5e8d4;strokeColor=#82b366;" parent="1" vertex="1">
          <mxGeometry x="330" y="490" width="120" height="60" as="geometry" />
        </mxCell>
        <mxCell id="VNdd1rjlOEJEIQUawzbV-3" value="Game Level" style="rounded=0;whiteSpace=wrap;html=1;fillColor=#d5e8d4;strokeColor=#82b366;" parent="1" vertex="1">
          <mxGeometry x="70" y="490" width="120" height="60" as="geometry" />
        </mxCell>
        <mxCell id="VNdd1rjlOEJEIQUawzbV-4" value="Database" style="rounded=0;whiteSpace=wrap;html=1;fillColor=#d5e8d4;strokeColor=#82b366;" parent="1" vertex="1">
          <mxGeometry x="280" y="120" width="90" height="50" as="geometry" />
        </mxCell>
        <mxCell id="VNdd1rjlOEJEIQUawzbV-6" value="Game Logic" style="rounded=0;whiteSpace=wrap;html=1;fillColor=#ffe6cc;strokeColor=#d79b00;" parent="1" vertex="1">
          <mxGeometry x="180" y="640" width="120" height="60" as="geometry" />
        </mxCell>
        <mxCell id="VNdd1rjlOEJEIQUawzbV-7" value="Game Board" style="rounded=0;whiteSpace=wrap;html=1;fillColor=#dae8fc;strokeColor=#6c8ebf;" parent="1" vertex="1">
          <mxGeometry x="630" y="560" width="120" height="60" as="geometry" />
        </mxCell>
        <mxCell id="VNdd1rjlOEJEIQUawzbV-8" value="&lt;font style=&quot;font-size: 24px;&quot;&gt;Backend&lt;/font&gt;" style="text;html=1;align=center;verticalAlign=middle;whiteSpace=wrap;rounded=0;" parent="1" vertex="1">
          <mxGeometry x="160" y="370" width="180" height="90" as="geometry" />
        </mxCell>
        <mxCell id="VNdd1rjlOEJEIQUawzbV-9" value="&lt;font style=&quot;font-size: 24px;&quot;&gt;Frontend&lt;/font&gt;" style="text;html=1;align=center;verticalAlign=middle;whiteSpace=wrap;rounded=0;" parent="1" vertex="1">
          <mxGeometry x="670" y="400" width="60" height="30" as="geometry" />
        </mxCell>
        <mxCell id="JpRoAGxpL8_0VY9wQZW4-2" value="" style="shape=flexArrow;endArrow=classic;html=1;rounded=0;exitX=0.5;exitY=1;exitDx=0;exitDy=0;entryX=0.5;entryY=0;entryDx=0;entryDy=0;" parent="1" source="VNdd1rjlOEJEIQUawzbV-3" target="VNdd1rjlOEJEIQUawzbV-6" edge="1">
          <mxGeometry width="50" height="50" relative="1" as="geometry">
            <mxPoint x="500" y="500" as="sourcePoint" />
            <mxPoint x="550" y="450" as="targetPoint" />
          </mxGeometry>
        </mxCell>
        <mxCell id="JpRoAGxpL8_0VY9wQZW4-3" value="" style="shape=flexArrow;endArrow=classic;html=1;rounded=0;entryX=0.5;entryY=1;entryDx=0;entryDy=0;" parent="1" target="VNdd1rjlOEJEIQUawzbV-1" edge="1">
          <mxGeometry width="50" height="50" relative="1" as="geometry">
            <mxPoint x="240" y="640" as="sourcePoint" />
            <mxPoint x="550" y="450" as="targetPoint" />
          </mxGeometry>
        </mxCell>
        <mxCell id="JpRoAGxpL8_0VY9wQZW4-4" value="" style="shape=flexArrow;endArrow=classic;html=1;rounded=0;exitX=1;exitY=0.5;exitDx=0;exitDy=0;entryX=0;entryY=0.5;entryDx=0;entryDy=0;" parent="1" source="VNdd1rjlOEJEIQUawzbV-3" target="VNdd1rjlOEJEIQUawzbV-7" edge="1">
          <mxGeometry width="50" height="50" relative="1" as="geometry">
            <mxPoint x="500" y="500" as="sourcePoint" />
            <mxPoint x="550" y="450" as="targetPoint" />
          </mxGeometry>
        </mxCell>
        <mxCell id="JpRoAGxpL8_0VY9wQZW4-5" value="" style="shape=flexArrow;endArrow=classic;html=1;rounded=0;exitX=1;exitY=0.5;exitDx=0;exitDy=0;entryX=0;entryY=0.5;entryDx=0;entryDy=0;" parent="1" source="VNdd1rjlOEJEIQUawzbV-1" target="VNdd1rjlOEJEIQUawzbV-7" edge="1">
          <mxGeometry width="50" height="50" relative="1" as="geometry">
            <mxPoint x="500" y="500" as="sourcePoint" />
            <mxPoint x="550" y="450" as="targetPoint" />
          </mxGeometry>
        </mxCell>
        <mxCell id="JpRoAGxpL8_0VY9wQZW4-6" value="" style="shape=flexArrow;endArrow=classic;html=1;rounded=0;exitX=0.558;exitY=1;exitDx=0;exitDy=0;exitPerimeter=0;entryX=1;entryY=0.5;entryDx=0;entryDy=0;" parent="1" source="VNdd1rjlOEJEIQUawzbV-7" target="VNdd1rjlOEJEIQUawzbV-6" edge="1">
          <mxGeometry width="50" height="50" relative="1" as="geometry">
            <mxPoint x="500" y="500" as="sourcePoint" />
            <mxPoint x="550" y="450" as="targetPoint" />
          </mxGeometry>
        </mxCell>
        <mxCell id="JpRoAGxpL8_0VY9wQZW4-7" value="game_level_model.py&lt;div&gt;qgame/game/serializer.py&lt;br&gt;&lt;/div&gt;&lt;div&gt;qgame/game/views.py&lt;br&gt;&lt;/div&gt;" style="text;html=1;align=center;verticalAlign=middle;whiteSpace=wrap;rounded=0;" parent="1" vertex="1">
          <mxGeometry x="500" y="460" width="60" height="30" as="geometry" />
        </mxCell>
      </root>
    </mxGraphModel>
  </diagram>
</mxfile>
